<svg width="123" height="122" viewBox="0 0 123 122" fill="none" xmlns="http://www.w3.org/2000/svg">
<g clip-path="url(#clip0_101_2)">
<path fill-rule="evenodd" clip-rule="evenodd" d="M12.35 121.46C4.34 111.74 0.430004 102.17 0.0400042 92.75C-0.779996 73.01 10.92 58.28 28.3 47.67C46.58 36.51 65.38 33.74 83.66 25.42C92.79 21.27 103.68 14.47 121.8 0C127.72 15.69 108.88 40.9 78.28 54.23C87.76 54.6 97.97 51.69 109.13 44.49C108.37 64.43 92.67 76.7 57.83 81.44C65.16 83.89 73.92 84.02 85.1 80.86C74.33 116.81 29.9 91.06 12.35 121.46Z" fill="#88A78E"/>
</g>
<defs>
<clipPath id="clip0_101_2">
<rect width="122.88" height="121.46" fill="white"/>
</clipPath>
</defs>
</svg>
